HIERARCHY
ROOT mixamorig:Hips
{
	OFFSET -0.000008 104.274872 1.554316
	CHANNELS 6 Xposition Yposition Zposition Xrotation Yrotation Zrotation
	JOINT mixamorig:Spine
	{
		OFFSET -0.000005 10.181595 0.131519
		CHANNELS 6 Xposition Yposition Zposition Xrotation Yrotation Zrotation
		JOINT mixamorig:Spine1
		{
			OFFSET -0.000000 9.893959 -1.470707
			CHANNELS 6 Xposition Yposition Zposition Xrotation Yrotation Zrotation
			JOINT mixamorig:Spine2
			{
				OFFSET -0.000000 9.220757 -1.370641
				CHANNELS 6 Xposition Yposition Zposition Xrotation Yrotation Zrotation
				JOINT mixamorig:Neck
				{
					OFFSET 0.000001 16.740417 -2.049036
					CHANNELS 6 Xposition Yposition Zposition Xrotation Yrotation Zrotation
					JOINT mixamorig:Head
					{
						OFFSET 0.000000 9.617874 1.685006
						CHANNELS 6 Xposition Yposition Zposition Xrotation Yrotation Zrotation
						JOINT mixamorig:HeadTop_End
						{
							OFFSET 0.000002 22.037354 7.501101
							CHANNELS 6 Xposition Yposition Zposition Xrotation Yrotation Zrotation
							End Site
							{
								OFFSET 0.000168 2310.654297 -282.823242
							}
						}
					}
				}
				JOINT mixamorig:RightShoulder
				{
					OFFSET -4.569970 11.014908 -2.160885
					CHANNELS 6 Xposition Yposition Zposition Xrotation Yrotation Zrotation
					JOINT mixamorig:RightArm
					{
						OFFSET -10.592851 -0.524811 -2.232101
						CHANNELS 6 Xposition Yposition Zposition Xrotation Yrotation Zrotation
						JOINT mixamorig:RightForeArm
						{
							OFFSET -27.841511 0.000031 -0.000004
							CHANNELS 6 Xposition Yposition Zposition Xrotation Yrotation Zrotation
							JOINT mixamorig:RightHand
							{
								OFFSET -28.328831 -0.000015 0.000015
								CHANNELS 6 Xposition Yposition Zposition Xrotation Yrotation Zrotation
								JOINT mixamorig:RightHandThumb1
								{
									OFFSET -2.464806 -1.573990 2.681852
									CHANNELS 6 Xposition Yposition Zposition Xrotation Yrotation Zrotation
									JOINT mixamorig:RightHandThumb2
									{
										OFFSET -3.215179 -1.872803 1.924282
										CHANNELS 6 Xposition Yposition Zposition Xrotation Yrotation Zrotation
										JOINT mixamorig:RightHandThumb3
										{
											OFFSET -2.654831 -1.527969 1.512609
											CHANNELS 6 Xposition Yposition Zposition Xrotation Yrotation Zrotation
											JOINT mixamorig:RightHandThumb4
											{
												OFFSET -2.018814 -1.152008 1.108052
												CHANNELS 6 Xposition Yposition Zposition Xrotation Yrotation Zrotation
												End Site
												{
													OFFSET -188.809540 -114.533607 132.431396
												}
											}
										}
									}
								}
								JOINT mixamorig:RightHandIndex1
								{
									OFFSET -9.108284 -0.517868 2.259835
									CHANNELS 6 Xposition Yposition Zposition Xrotation Yrotation Zrotation
									JOINT mixamorig:RightHandIndex2
									{
										OFFSET -3.699989 0.000000 0.001215
										CHANNELS 6 Xposition Yposition Zposition Xrotation Yrotation Zrotation
										JOINT mixamorig:RightHandIndex3
										{
											OFFSET -2.850006 0.000031 -0.000522
											CHANNELS 6 Xposition Yposition Zposition Xrotation Yrotation Zrotation
											JOINT mixamorig:RightHandIndex4
											{
												OFFSET -2.772186 -0.000015 -0.000020
												CHANNELS 6 Xposition Yposition Zposition Xrotation Yrotation Zrotation
												End Site
												{
													OFFSET -277.218445 0.000000 -0.050231
												}
											}
										}
									}
								}
								JOINT mixamorig:RightHandMiddle1
								{
									OFFSET -9.532516 -0.000031 -0.000023
									CHANNELS 6 Xposition Yposition Zposition Xrotation Yrotation Zrotation
									JOINT mixamorig:RightHandMiddle2
									{
										OFFSET -3.700005 -0.000015 0.003713
										CHANNELS 6 Xposition Yposition Zposition Xrotation Yrotation Zrotation
										JOINT mixamorig:RightHandMiddle3
										{
											OFFSET -2.949974 0.000015 -0.002054
											CHANNELS 6 Xposition Yposition Zposition Xrotation Yrotation Zrotation
											JOINT mixamorig:RightHandMiddle4
											{
												OFFSET -2.946640 0.000000 -0.000156
												CHANNELS 6 Xposition Yposition Zposition Xrotation Yrotation Zrotation
												End Site
												{
													OFFSET -294.664337 0.000000 -0.113670
												}
											}
										}
									}
								}
								JOINT mixamorig:RightHandRing1
								{
									OFFSET -9.103600 -0.043076 -1.865134
									CHANNELS 6 Xposition Yposition Zposition Xrotation Yrotation Zrotation
									JOINT mixamorig:RightHandRing2
									{
										OFFSET -3.379288 0.000000 -0.001055
										CHANNELS 6 Xposition Yposition Zposition Xrotation Yrotation Zrotation
										JOINT mixamorig:RightHandRing3
										{
											OFFSET -2.889687 -0.000015 0.000379
											CHANNELS 6 Xposition Yposition Zposition Xrotation Yrotation Zrotation
											JOINT mixamorig:RightHandRing4
											{
												OFFSET -2.638809 -0.000015 0.000941
												CHANNELS 6 Xposition Yposition Zposition Xrotation Yrotation Zrotation
												End Site
												{
													OFFSET -263.880371 0.000000 0.516020
												}
											}
										}
									}
								}
								JOINT mixamorig:RightHandPinky1
								{
									OFFSET -8.076683 -0.486710 -3.806280
									CHANNELS 6 Xposition Yposition Zposition Xrotation Yrotation Zrotation
									JOINT mixamorig:RightHandPinky2
									{
										OFFSET -3.600014 -0.000015 -0.003747
										CHANNELS 6 Xposition Yposition Zposition Xrotation Yrotation Zrotation
										JOINT mixamorig:RightHandPinky3
										{
											OFFSET -2.099983 0.000000 -0.005739
											CHANNELS 6 Xposition Yposition Zposition Xrotation Yrotation Zrotation
											JOINT mixamorig:RightHandPinky4
											{
												OFFSET -2.115768 -0.000031 -0.003680
												CHANNELS 6 Xposition Yposition Zposition Xrotation Yrotation Zrotation
												End Site
												{
													OFFSET -211.577087 0.000000 -0.350686
												}
											}
										}
									}
								}
							}
						}
					}
				}
				JOINT mixamorig:LeftShoulder
				{
					OFFSET 4.570447 11.014725 -2.160855
					CHANNELS 6 Xposition Yposition Zposition Xrotation Yrotation Zrotation
					JOINT mixamorig:LeftArm
					{
						OFFSET 10.592371 -0.524597 -2.232119
						CHANNELS 6 Xposition Yposition Zposition Xrotation Yrotation Zrotation
						JOINT mixamorig:LeftForeArm
						{
							OFFSET 27.841532 -0.000031 0.000026
							CHANNELS 6 Xposition Yposition Zposition Xrotation Yrotation Zrotation
							JOINT mixamorig:LeftHand
							{
								OFFSET 28.328846 -0.000061 0.000022
								CHANNELS 6 Xposition Yposition Zposition Xrotation Yrotation Zrotation
								JOINT mixamorig:LeftHandThumb1
								{
									OFFSET 2.466141 -1.576172 2.681732
									CHANNELS 6 Xposition Yposition Zposition Xrotation Yrotation Zrotation
									JOINT mixamorig:LeftHandThumb2
									{
										OFFSET 3.217812 -1.872070 1.916482
										CHANNELS 6 Xposition Yposition Zposition Xrotation Yrotation Zrotation
										JOINT mixamorig:LeftHandThumb3
										{
											OFFSET 2.656029 -1.528778 1.514513
											CHANNELS 6 Xposition Yposition Zposition Xrotation Yrotation Zrotation
											JOINT mixamorig:LeftHandThumb4
											{
												OFFSET 2.020889 -1.154053 1.115139
												CHANNELS 6 Xposition Yposition Zposition Xrotation Yrotation Zrotation
												End Site
												{
													OFFSET 190.885437 -115.081749 130.048782
												}
											}
										}
									}
								}
								JOINT mixamorig:LeftHandIndex1
								{
									OFFSET 9.109314 -0.518021 2.259871
									CHANNELS 6 Xposition Yposition Zposition Xrotation Yrotation Zrotation
									JOINT mixamorig:LeftHandIndex2
									{
										OFFSET 3.699989 0.000000 -0.000322
										CHANNELS 6 Xposition Yposition Zposition Xrotation Yrotation Zrotation
										JOINT mixamorig:LeftHandIndex3
										{
											OFFSET 2.850006 0.000000 0.000352
											CHANNELS 6 Xposition Yposition Zposition Xrotation Yrotation Zrotation
											JOINT mixamorig:LeftHandIndex4
											{
												OFFSET 2.774864 -0.000031 -0.000027
												CHANNELS 6 Xposition Yposition Zposition Xrotation Yrotation Zrotation
												End Site
												{
													OFFSET 277.486267 0.000000 -0.009857
												}
											}
										}
									}
								}
								JOINT mixamorig:LeftHandMiddle1
								{
									OFFSET 9.533394 0.000061 0.000044
									CHANNELS 6 Xposition Yposition Zposition Xrotation Yrotation Zrotation
									JOINT mixamorig:LeftHandMiddle2
									{
										OFFSET 3.699989 -0.000015 -0.000231
										CHANNELS 6 Xposition Yposition Zposition Xrotation Yrotation Zrotation
										JOINT mixamorig:LeftHandMiddle3
										{
											OFFSET 2.949997 -0.000015 -0.000059
											CHANNELS 6 Xposition Yposition Zposition Xrotation Yrotation Zrotation
											JOINT mixamorig:LeftHandMiddle4
											{
												OFFSET 2.952896 0.000031 0.000063
												CHANNELS 6 Xposition Yposition Zposition Xrotation Yrotation Zrotation
												End Site
												{
													OFFSET 295.289337 0.000000 0.022810
												}
											}
										}
									}
								}
								JOINT mixamorig:LeftHandRing1
								{
									OFFSET 9.104523 -0.042999 -1.865074
									CHANNELS 6 Xposition Yposition Zposition Xrotation Yrotation Zrotation
									JOINT mixamorig:LeftHandRing2
									{
										OFFSET 3.150009 -0.000031 0.000043
										CHANNELS 6 Xposition Yposition Zposition Xrotation Yrotation Zrotation
										JOINT mixamorig:LeftHandRing3
										{
											OFFSET 2.949982 -0.000015 0.000040
											CHANNELS 6 Xposition Yposition Zposition Xrotation Yrotation Zrotation
											JOINT mixamorig:LeftHandRing4
											{
												OFFSET 2.644348 0.000000 0.000057
												CHANNELS 6 Xposition Yposition Zposition Xrotation Yrotation Zrotation
												End Site
												{
													OFFSET 264.434631 0.000000 0.012105
												}
											}
										}
									}
								}
								JOINT mixamorig:LeftHandPinky1
								{
									OFFSET 8.077789 -0.486847 -3.806259
									CHANNELS 6 Xposition Yposition Zposition Xrotation Yrotation Zrotation
									JOINT mixamorig:LeftHandPinky2
									{
										OFFSET 3.599953 0.000031 0.014727
										CHANNELS 6 Xposition Yposition Zposition Xrotation Yrotation Zrotation
										JOINT mixamorig:LeftHandPinky3
										{
											OFFSET 2.100021 0.000015 0.007705
											CHANNELS 6 Xposition Yposition Zposition Xrotation Yrotation Zrotation
											JOINT mixamorig:LeftHandPinky4
											{
												OFFSET 2.125504 0.000031 0.007517
												CHANNELS 6 Xposition Yposition Zposition Xrotation Yrotation Zrotation
												End Site
												{
													OFFSET 212.550781 0.000000 0.625752
												}
											}
										}
									}
								}
							}
						}
					}
				}
			}
		}
	}
	JOINT mixamorig:RightUpLeg
	{
		OFFSET -8.207787 -6.751648 -1.599560
		CHANNELS 6 Xposition Yposition Zposition Xrotation Yrotation Zrotation
		JOINT mixamorig:RightLeg
		{
			OFFSET -0.000002 -44.370117 0.345942
			CHANNELS 6 Xposition Yposition Zposition Xrotation Yrotation Zrotation
			JOINT mixamorig:RightFoot
			{
				OFFSET 0.000003 -44.423679 -3.043532
				CHANNELS 6 Xposition Yposition Zposition Xrotation Yrotation Zrotation
				JOINT mixamorig:RightToeBase
				{
					OFFSET -0.000002 -8.728671 10.710558
					CHANNELS 6 Xposition Yposition Zposition Xrotation Yrotation Zrotation
					JOINT mixamorig:RightToe_End
					{
						OFFSET -0.000001 -0.000679 9.278119
						CHANNELS 6 Xposition Yposition Zposition Xrotation Yrotation Zrotation
						End Site
						{
							OFFSET 0.000000 -0.067690 927.812134
						}
					}
				}
			}
		}
	}
	JOINT mixamorig:LeftUpLeg
	{
		OFFSET 8.207793 -6.751686 -1.599556
		CHANNELS 6 Xposition Yposition Zposition Xrotation Yrotation Zrotation
		JOINT mixamorig:LeftLeg
		{
			OFFSET -0.000004 -44.370014 0.346954
			CHANNELS 6 Xposition Yposition Zposition Xrotation Yrotation Zrotation
			JOINT mixamorig:LeftFoot
			{
				OFFSET -0.000001 -44.423672 -3.044401
				CHANNELS 6 Xposition Yposition Zposition Xrotation Yrotation Zrotation
				JOINT mixamorig:LeftToeBase
				{
					OFFSET -0.000002 -8.728669 10.710558
					CHANNELS 6 Xposition Yposition Zposition Xrotation Yrotation Zrotation
					JOINT mixamorig:LeftToe_End
					{
						OFFSET -0.000003 -0.000679 9.278133
						CHANNELS 6 Xposition Yposition Zposition Xrotation Yrotation Zrotation
						End Site
						{
							OFFSET 0.000000 -0.068021 927.813477
						}
					}
				}
			}
		}
	}
}
MOTION
Frames: 3
Frame Time: 0.033333
0.000006 104.270477 1.554256 0.000010 0.000003 -0.000113 -0.000005 10.181587 0.131522 0.000001 -0.000003 0.000084 -0.000000 9.893967 -1.470711 0.000001 0.000000 -0.000000 -0.000000 9.220802 -1.370642 0.000000 -0.000000 -0.000000 0.000001 16.740433 -2.049030 0.000000 -0.000000 -0.000000 0.000000 9.617859 1.685014 0.000000 0.000000 0.000000 0.000002 22.037384 7.501101 0.000000 -0.000000 0.000000 -4.569968 11.014880 -2.160881 0.000008 0.000001 -0.000038 -10.592798 -0.524842 -2.231757 78.923150 59.680513 -50.555783 -27.841516 0.000018 0.000547 -10.524834 96.813922 11.848254 -28.328848 0.000020 0.000025 -0.000323 -0.000044 0.000008 -2.464969 -1.573937 2.682142 146.587389 -236.369625 161.537908 -3.215325 -1.872694 1.924580 362.509640 60.585677 -32.583557 -2.655025 -1.527961 1.512901 333.545376 59.792794 -19.000652 -2.018826 -1.152021 1.108064 -0.000000 0.000001 0.000002 -9.108419 -0.517631 2.260049 253.874908 151.104152 158.033802 -3.700134 0.000166 0.001620 278.354087 133.557123 127.208913 -2.850149 0.000130 -0.000049 127.014089 44.057148 -78.135178 -2.772162 0.000002 -0.000013 0.000002 -0.000002 0.000002 -9.532605 0.000259 0.000251 93.027607 19.838136 -21.046803 -3.700129 0.000165 0.004124 297.489709 145.848253 126.478014 -2.950032 0.000036 -0.001515 153.480457 36.569871 -108.989206 -2.946637 0.000003 -0.000156 -0.000000 -0.000002 0.000005 -9.103733 -0.042829 -1.864753 -68.038738 153.640884 141.803060 -3.379189 0.000039 -0.000442 206.694611 39.963095 -246.265121 -2.889733 -0.000026 0.000931 240.440089 16.166023 27.447844 -2.638804 -0.000004 0.000942 0.000001 -0.000004 -0.000002 -8.076735 -0.486592 -3.805769 -40.490984 143.742601 -262.843848 -3.600007 -0.000138 -0.003256 -116.450996 8.548941 13.346406 -2.099986 -0.000212 -0.005362 260.847875 -1.707878 -2.248483 -2.115775 -0.000039 -0.003681 -0.000000 -0.000001 -0.000006 4.570446 11.014691 -2.160851 -0.000018 0.000010 -0.000021 10.592533 -0.524530 -2.232401 75.190506 -65.261344 52.486572 27.841753 -0.000043 -0.000133 235.772939 -79.620813 244.822639 28.328833 -0.000013 0.000031 0.000022 -0.000090 -0.000000 2.466176 -1.576133 2.681882 134.676646 192.875690 -167.289925 3.217849 -1.871943 1.916585 296.918787 6.832246 17.854644 2.656065 -1.528756 1.514633 294.399021 11.328179 19.571642 2.020891 -1.154070 1.115162 0.000004 0.000005 0.000002 9.109262 -0.517875 2.260110 451.399580 -158.707956 159.216026 3.699961 0.000138 -0.000077 276.826529 -12.077379 -10.735855 2.849998 0.000161 0.000587 278.818403 -5.254586 -4.502263 2.774880 -0.000031 -0.000031 -0.000001 -0.000001 -0.000000 9.533341 0.000264 0.000284 432.741853 -163.637590 157.914903 3.699978 0.000211 0.000010 255.183135 -5.047875 -6.551262 2.950000 0.000189 0.000172 255.258185 -3.446972 -4.473351 2.952871 -0.000029 0.000062 -0.000002 -0.000000 0.000001 9.104477 -0.042790 -1.864820 257.473106 -12.024527 -14.960684 3.150002 0.000189 0.000271 269.310753 -0.010058 -0.011730 2.949991 0.000167 0.000266 273.476867 3.552328 3.341699 2.644325 0.000030 0.000057 -0.000003 0.000000 -0.000000 8.077763 -0.486677 -3.806029 261.892539 -8.059598 -9.741276 3.599965 0.000162 0.014993 274.557923 2.937426 2.304639 2.100022 0.000148 0.007924 281.163289 6.227760 4.753282 2.125502 -0.000015 0.007524 -0.000001 0.000001 0.000000 -8.207786 -6.751667 -1.599560 -0.077001 -0.000003 0.000080 -0.000002 -44.370110 0.345938 0.153719 -0.000000 -0.000000 0.000000 -44.423679 -3.043532 -0.076700 0.000000 -0.000002 -0.000006 -8.728667 10.710559 -0.000009 -0.000000 -0.000000 -0.000001 -0.000679 9.278123 0.000000 -0.000000 -0.000000 8.207792 -6.751710 -1.599556 -0.074518 -0.000003 0.000081 -0.000002 -44.370014 0.346960 0.148822 0.000002 0.000000 -0.000001 -44.423664 -3.044403 -0.074314 0.000000 -0.000002 -0.000004 -8.728671 10.710558 0.000007 -0.000000 -0.000000 0.000000 -0.000680 9.278137 -0.000000 0.000000 -0.000001 
0.000006 104.270477 1.554256 0.000010 0.000003 -0.000113 -0.000005 10.181587 0.131522 0.000001 -0.000003 0.000084 -0.000000 9.893967 -1.470711 0.000001 0.000000 -0.000000 -0.000000 9.220802 -1.370642 0.000000 -0.000000 -0.000000 0.000001 16.740433 -2.049030 0.000000 -0.000000 -0.000000 0.000000 9.617859 1.685014 0.000000 0.000000 0.000000 0.000002 22.037384 7.501101 0.000000 -0.000000 0.000000 -4.569968 11.014880 -2.160881 0.000008 0.000001 -0.000038 -10.592777 -0.524846 -2.231745 81.049122 64.013728 -56.230738 -27.841522 0.000007 0.000559 21.751938 96.775735 -24.411740 -28.328835 0.000022 0.000031 -0.000321 -0.000044 0.000006 -2.464947 -1.574022 2.682089 134.052271 -218.761520 166.355213 -3.215311 -1.872818 1.924518 312.264064 40.127156 -12.539215 -2.654975 -1.528078 1.512868 300.060155 33.808381 -11.493491 -2.018837 -1.151988 1.108069 -0.000005 -0.000000 0.000000 -9.108399 -0.517864 2.260289 268.059052 80.281463 82.169232 -3.700065 -0.000050 0.001702 262.051518 46.108606 52.132846 -2.850078 -0.000079 -0.000078 85.238227 154.776444 -152.667295 -2.772179 -0.000016 -0.000021 -0.000002 0.000000 0.000003 -9.532557 -0.000064 0.000481 59.590436 115.798631 -84.855033 -3.700041 -0.000104 0.004207 432.713412 159.662966 207.327619 -2.950027 -0.000133 -0.001607 256.494640 9.240686 11.701230 -2.946607 0.000014 -0.000158 -0.000009 -0.000001 -0.000001 -9.103621 -0.043055 -1.864568 57.451023 145.429358 239.166833 -3.379287 -0.000158 -0.000611 254.397472 2.829705 -356.253651 -2.889706 -0.000201 0.000737 263.832914 -5.007627 -5.527693 -2.638805 0.000002 0.000943 -0.000000 -0.000000 -0.000002 -8.076690 -0.486714 -3.805743 56.177466 155.555905 -135.904386 -3.599975 -0.000230 -0.003336 -104.841300 -4.153074 -5.832742 -2.099940 -0.000271 -0.005435 269.230675 -10.345875 -10.722020 -2.115768 -0.000057 -0.003684 -0.000001 -0.000000 -0.000003 4.570446 11.014691 -2.160851 -0.000018 0.000010 -0.000021 10.592540 -0.524531 -2.232399 75.838022 -65.391446 53.133397 27.841755 -0.000045 -0.000135 231.106226 -81.525507 238.028104 28.328831 -0.000014 0.000024 0.000019 -0.000089 0.000000 2.466172 -1.576140 2.681889 136.711004 193.632421 -167.550892 3.217854 -1.871936 1.916592 294.930464 9.211950 18.837952 2.656054 -1.528749 1.514624 294.320337 12.052357 19.717884 2.020910 -1.154067 1.115159 0.000000 -0.000001 0.000004 9.109281 -0.517823 2.260117 438.956696 -166.833600 164.057633 3.699982 0.000165 -0.000082 266.013602 -3.795911 -4.083508 2.850014 0.000167 0.000566 272.433816 0.894492 0.858348 2.774887 -0.000031 -0.000028 -0.000002 0.000001 -0.000000 9.533358 0.000285 0.000283 432.471077 -169.112438 165.189245 3.699998 0.000189 0.000003 260.323125 0.298218 0.356041 2.950015 0.000160 0.000174 265.978549 -0.037564 -0.042935 2.952874 -0.000015 0.000053 0.000002 -0.000000 -0.000000 9.104506 -0.042787 -1.864828 256.600372 -8.060197 -10.197491 3.150012 0.000160 0.000275 268.718384 1.994436 2.037921 2.949994 0.000157 0.000260 276.225937 2.489313 2.231202 2.644318 0.000015 0.000056 -0.000002 -0.000000 -0.000000 8.077765 -0.486664 -3.806010 260.211137 -5.575801 -7.115981 3.599962 0.000175 0.014975 273.964898 3.617912 2.959311 2.100014 0.000124 0.007935 280.309188 4.311692 3.236564 2.125496 -0.000000 0.007514 0.000001 0.000000 -0.000000 -8.207786 -6.751667 -1.599560 -0.077001 -0.000003 0.000080 -0.000002 -44.370110 0.345938 0.153719 -0.000000 -0.000000 0.000000 -44.423679 -3.043532 -0.076700 0.000000 -0.000002 -0.000006 -8.728667 10.710559 -0.000009 -0.000000 -0.000000 -0.000001 -0.000679 9.278123 0.000000 -0.000000 -0.000000 8.207792 -6.751710 -1.599556 -0.074518 -0.000003 0.000081 -0.000002 -44.370014 0.346960 0.148822 0.000002 0.000000 -0.000001 -44.423664 -3.044403 -0.074314 0.000000 -0.000002 -0.000004 -8.728671 10.710558 0.000007 -0.000000 -0.000000 0.000000 -0.000680 9.278137 -0.000000 0.000000 -0.000001 
0.000006 104.270477 1.554256 0.000010 0.000003 -0.000113 -0.000005 10.181587 0.131522 0.000001 -0.000003 0.000084 -0.000000 9.893967 -1.470711 0.000001 0.000000 -0.000000 -0.000000 9.220802 -1.370642 0.000000 -0.000000 -0.000000 0.000001 16.740433 -2.049030 0.000000 -0.000000 -0.000000 0.000000 9.617859 1.685014 0.000000 0.000000 0.000000 0.000002 22.037384 7.501101 0.000000 -0.000000 0.000000 -4.569968 11.014880 -2.160881 0.000008 0.000001 -0.000038 -10.592783 -0.524846 -2.231750 82.315917 63.267400 -56.603417 -27.841515 0.000005 0.000565 51.870687 102.137187 -62.099889 -28.328831 0.000020 0.000022 -0.000321 -0.000045 0.000007 -2.464898 -1.574101 2.682072 118.647722 -199.693653 165.661758 -3.215190 -1.872958 1.924471 291.918296 4.111314 -17.542409 -2.654874 -1.528208 1.512801 293.793566 3.612381 -17.247404 -2.018838 -1.151998 1.108065 -0.000003 -0.000006 0.000004 -9.108351 -0.517881 2.260345 251.119746 39.163103 52.915238 -3.700061 -0.000078 0.001660 266.251948 28.467834 30.300529 -2.850083 -0.000110 -0.000117 90.701224 162.996222 -163.200581 -2.772146 -0.000017 -0.000011 -0.000002 -0.000002 0.000002 -9.532518 -0.000047 0.000532 56.739874 153.534484 -132.870388 -3.700038 -0.000115 0.004171 434.019535 165.060633 199.660814 -2.950025 -0.000144 -0.001640 262.188040 13.518211 15.471960 -2.946632 0.000017 -0.000160 0.000000 -0.000001 0.000000 -9.103600 -0.043042 -1.864582 53.253103 158.663764 221.155802 -3.379277 -0.000125 -0.000574 249.149318 7.754186 -348.749568 -2.889714 -0.000159 0.000803 260.350856 3.449558 4.130390 -2.638806 -0.000043 0.000945 0.000000 0.000002 -0.000001 -8.076703 -0.486706 -3.805757 54.135577 164.802042 -150.883018 -3.599992 -0.000200 -0.003289 -111.458169 2.251662 2.862400 -2.099995 -0.000202 -0.005365 262.080915 1.124750 1.065164 -2.115788 -0.000042 -0.003678 -0.000000 -0.000000 -0.000001 4.570446 11.014691 -2.160851 -0.000018 0.000010 -0.000021 10.592541 -0.524514 -2.232407 77.416458 -60.670774 50.249241 27.841789 -0.000034 -0.000139 209.773838 -83.223874 213.324034 28.328840 -0.000032 0.000021 0.000021 -0.000088 -0.000001 2.466182 -1.576090 2.681919 118.658090 184.455925 -164.040886 3.217858 -1.871910 1.916590 288.114345 5.519870 20.426202 2.656068 -1.528704 1.514652 294.578409 3.140656 18.171421 2.020891 -1.154067 1.115141 -0.000000 0.000003 0.000002 9.109200 -0.517731 2.260096 410.478742 -161.359367 141.618986 3.699937 0.000207 -0.000082 254.082218 -13.864440 -18.317534 2.849983 0.000228 0.000596 259.935061 -9.797719 -11.676835 2.774879 -0.000016 -0.000026 0.000000 0.000000 0.000000 9.533329 0.000342 0.000283 415.749353 -167.311412 156.266259 3.699986 0.000180 0.000013 263.954163 -4.404787 -4.893104 2.949991 0.000137 0.000178 277.153558 -7.387632 -6.522279 2.952867 -0.000016 0.000061 0.000002 0.000000 -0.000001 9.104484 -0.042746 -1.864837 239.734777 -10.751361 -18.613676 3.149996 0.000210 0.000289 266.297738 -4.133669 -4.411037 2.949972 0.000139 0.000280 282.457665 -5.196232 -4.175659 2.644319 0.000031 0.000050 -0.000001 0.000001 -0.000000 8.077746 -0.486587 -3.806010 239.083395 -8.309143 -15.276676 3.599947 0.000196 0.014954 267.542854 -1.929835 -2.438348 2.099999 0.000148 0.007951 281.484117 -3.530197 -3.194228 2.125499 -0.000031 0.007519 0.000002 -0.000000 -0.000001 -8.207786 -6.751667 -1.599560 -0.077001 -0.000003 0.000080 -0.000002 -44.370110 0.345938 0.153719 -0.000000 -0.000000 0.000000 -44.423679 -3.043532 -0.076700 0.000000 -0.000002 -0.000006 -8.728667 10.710559 -0.000009 -0.000000 -0.000000 -0.000001 -0.000679 9.278123 0.000000 -0.000000 -0.000000 8.207792 -6.751710 -1.599556 -0.074518 -0.000003 0.000081 -0.000002 -44.370014 0.346960 0.148822 0.000002 0.000000 -0.000001 -44.423664 -3.044403 -0.074314 0.000000 -0.000002 -0.000004 -8.728671 10.710558 0.000007 -0.000000 -0.000000 0.000000 -0.000680 9.278137 -0.000000 0.000000 -0.000001 
